<?xml version="1.0" standalone="no"?>
<!DOCTYPE svg PUBLIC "-//W3C//DTD SVG 20010904//EN"
 "http://www.w3.org/TR/2001/REC-SVG-20010904/DTD/svg10.dtd">
<svg version="1.0" xmlns="http://www.w3.org/2000/svg"
 width="495.000000pt" height="354.000000pt" viewBox="0 0 495.000000 354.000000"
 preserveAspectRatio="xMidYMid meet">

<g transform="translate(0.000000,354.000000) scale(0.100000,-0.100000)"
fill="#000000" stroke="none">
<path d="M7 3533 c-4 -3 -7 -800 -7 -1770 l0 -1763 2475 0 c1643 0 2475 3
2475 10 0 6 -18 10 -40 10 l-40 0 -2 443 c0 243 -1 449 0 457 3 43 -22 149
-48 200 -67 132 -221 229 -365 230 -114 0 -280 -53 -400 -128 l-49 -31 -37 34
c-80 72 -218 125 -324 125 -71 0 -186 -34 -287 -85 -47 -24 -89 -41 -92 -38
-3 4 -6 26 -6 50 l0 43 -195 0 -195 0 0 -650 0 -650 -220 0 -220 0 0 869 0
869 -32 6 c-18 4 -557 6 -1198 6 -641 0 -1169 0 -1175 0 -6 0 -9 78 -7 220 l3
220 194 0 195 0 0 472 0 471 41 39 c52 49 148 98 208 105 41 5 51 2 79 -22 18
-15 43 -46 55 -69 22 -40 22 -48 25 -518 l3 -478 194 0 195 0 0 474 0 473 46
43 c53 49 132 87 196 96 60 8 98 -14 132 -76 l26 -47 0 -459 c1 -253 3 -470 7
-482 5 -22 6 -22 200 -20 l194 3 -1 497 c0 535 0 528 -55 622 -47 80 -114 131
-245 184 -18 8 87 11 362 11 375 1 386 0 381 -18 -3 -13 1 -21 14 -24 12 -3
13 -5 3 -6 -13 -1 -15 -101 -13 -844 l1 -842 1191 0 c890 0 1194 3 1199 12 8
13 4 1659 -4 1650 -3 -3 -16 5 -29 19 l-22 24 -1124 2 -1124 3 1120 2 c980 3
1124 1 1151 -12 40 -19 50 -19 34 0 -9 11 -9 15 -1 15 7 0 10 4 6 9 -3 6 17
12 47 14 29 2 -1059 4 -2418 5 -1359 1 -2474 -1 -2477 -5z m630 -28 c-37 -13
-99 -40 -138 -60 -40 -20 -75 -33 -80 -28 -4 4 -9 26 -11 48 l-3 40 -190 3
c-106 1 -194 7 -199 12 -7 7 112 10 340 9 l349 0 -68 -24z m801 5 c-84 -25
-167 -61 -224 -100 -25 -16 -50 -30 -56 -30 -6 0 -28 16 -49 35 -42 37 -120
80 -184 100 -34 11 4 13 270 13 l310 1 -67 -19z m1059 -6 c-3 -3 -12 -4 -19
-1 -8 3 -5 6 6 6 11 1 17 -2 13 -5z m22 -79 c7 -7 -19 -25 -36 -25 -7 0 -13 9
-13 19 0 15 5 19 21 16 12 -3 24 -7 28 -10z m2321 -41 c0 -8 -5 -12 -10 -9 -6
4 -8 11 -5 16 9 14 15 11 15 -7z m-33 -1086 c-1 -200 -2 -39 -2 357 0 396 1
559 2 363 2 -196 2 -520 0 -720z m-2281 -466 c-21 -2 -42 0 -47 5 -4 4 13 6
39 3 l47 -5 -39 -3z m2304 -6 c0 -3 -4 -8 -10 -11 -5 -3 -10 -1 -10 4 0 6 5
11 10 11 6 0 10 -2 10 -4z m-4763 -102 c-3 -3 -12 -4 -19 -1 -8 3 -5 6 6 6 11
1 17 -2 13 -5z m325 -1 c-50 -2 -134 -2 -185 0 -50 1 -9 3 93 3 102 0 143 -2
92 -3z m161 0 c-7 -2 -21 -2 -30 0 -10 3 -4 5 12 5 17 0 24 -2 18 -5z m80 0
c-7 -2 -21 -2 -30 0 -10 3 -4 5 12 5 17 0 24 -2 18 -5z m260 0 c-40 -2 -107
-2 -150 0 -43 1 -10 3 72 3 83 0 118 -2 78 -3z m125 0 c-10 -2 -26 -2 -35 0
-10 3 -2 5 17 5 19 0 27 -2 18 -5z m80 0 c-10 -2 -26 -2 -35 0 -10 3 -2 5 17
5 19 0 27 -2 18 -5z m80 0 c-10 -2 -26 -2 -35 0 -10 3 -2 5 17 5 19 0 27 -2
18 -5z m80 0 c-10 -2 -26 -2 -35 0 -10 3 -2 5 17 5 19 0 27 -2 18 -5z m1152
-3 c8 -5 11 -12 7 -17 -5 -4 -11 -2 -16 5 -5 9 -141 12 -567 15 l-559 2 560 2
c332 2 566 -1 575 -7z m-2330 -20 c0 -5 -2 -10 -4 -10 -3 0 -8 5 -11 10 -3 6
-1 10 4 10 6 0 11 -4 11 -10z m-3 -1273 c-1 -221 -2 -37 -2 408 0 446 1 626 2
402 2 -225 2 -589 0 -810z m2340 -19 c-1 -211 -2 -41 -2 377 0 418 1 590 2
383 2 -207 2 -549 0 -760z m1192 667 c59 -67 61 -91 61 -597 l0 -458 -205 0
-205 0 0 476 0 476 36 34 c20 18 66 49 103 68 53 28 77 35 122 36 53 0 59 -3
88 -35z m784 15 c14 -11 36 -41 49 -68 23 -47 23 -47 26 -524 l3 -478 -206 0
-205 0 0 479 0 479 41 37 c94 84 234 121 292 75z"/>
</g>
</svg>
